<svg width="34" height="34" viewBox="0 0 34 34" fill="none" xmlns="http://www.w3.org/2000/svg">
<path d="M21.655 15.3996L18.5007 20.4133C18.3716 20.5921 18.2147 20.7491 18.0359 20.8781C17.6041 21.1793 17.071 21.2981 16.5522 21.2087C16.0334 21.1193 15.5708 20.8288 15.2648 20.4004C14.9588 19.9721 14.8341 19.4403 14.9178 18.9205C15.0014 18.4008 15.2867 17.935 15.7116 17.6242L20.7253 14.4699C20.8393 14.3905 20.9749 14.3479 21.1138 14.3479C21.2527 14.3479 21.3883 14.3905 21.5023 14.4699C21.6454 14.5733 21.7418 14.7291 21.7704 14.9033C21.799 15.0775 21.7575 15.2559 21.655 15.3996Z" fill="#170F46"/>
<path d="M17 4.25C8.78556 4.25 2.12501 10.9039 2.12501 19.1184C2.11998 22.7527 3.45051 26.2622 5.86369 28.9797C5.93673 29.0594 6.00314 29.1391 6.07619 29.2121C6.23333 29.3822 6.42409 29.5179 6.63638 29.6104C6.84868 29.703 7.07788 29.7505 7.30948 29.7499C7.54108 29.7492 7.77002 29.7005 7.98181 29.6068C8.19361 29.5131 8.38363 29.3764 8.53986 29.2055C9.61664 28.0353 10.9245 27.1012 12.3807 26.4623C13.8369 25.8234 15.4098 25.4935 17 25.4935C18.5902 25.4935 20.1631 25.8234 21.6194 26.4623C23.0756 27.1012 24.3834 28.0353 25.4602 29.2055C25.6164 29.3764 25.8064 29.5131 26.0182 29.6068C26.23 29.7005 26.459 29.7492 26.6905 29.7499C26.9221 29.7505 27.1513 29.703 27.3636 29.6104C27.5759 29.5179 27.7667 29.3822 27.9238 29.2121L28.1363 28.9797C30.5495 26.2622 31.8801 22.7527 31.875 19.1184C31.875 10.9039 25.2145 4.25 17 4.25Z" stroke="#170F46" stroke-width="1.5" stroke-linecap="round" stroke-linejoin="round"/>
<path d="M17 8.5V10.625" stroke="#170F46" stroke-width="1.5" stroke-miterlimit="10" stroke-linecap="round"/>
<path d="M27.625 19.125H25.5" stroke="#170F46" stroke-width="1.5" stroke-miterlimit="10" stroke-linecap="round"/>
<path d="M8.5 19.125H6.375" stroke="#170F46" stroke-width="1.5" stroke-miterlimit="10" stroke-linecap="round"/>
<path d="M10.9896 13.1146L9.48682 11.6118" stroke="#170F46" stroke-width="1.5" stroke-miterlimit="10" stroke-linecap="round"/>
<path d="M23.0105 13.1146L24.5133 11.6118" stroke="#170F46" stroke-width="1.5" stroke-miterlimit="10" stroke-linecap="round"/>
</svg>
