<svg width="24" height="24" viewBox="0 0 24 24" fill="none" xmlns="http://www.w3.org/2000/svg">
<path d="M18.8439 7.875C18.7065 9.78141 17.2923 11.25 15.7501 11.25C14.2079 11.25 12.7914 9.78188 12.6564 7.875C12.5157 5.89172 13.8925 4.5 15.7501 4.5C17.6078 4.5 18.9845 5.92781 18.8439 7.875Z" stroke="white" stroke-width="1.5" stroke-linecap="round" stroke-linejoin="round"/>
<path d="M15.7501 14.25C12.6952 14.25 9.75756 15.7673 9.02162 18.7223C8.92412 19.1133 9.16928 19.5 9.571 19.5H21.9296C22.3313 19.5 22.5751 19.1133 22.479 18.7223C21.743 15.72 18.8054 14.25 15.7501 14.25Z" stroke="white" stroke-width="1.5" stroke-miterlimit="10"/>
<path d="M9.37496 8.71594C9.26527 10.2384 8.12246 11.4375 6.89058 11.4375C5.65871 11.4375 4.51402 10.2389 4.40621 8.71594C4.29418 7.13203 5.40652 6 6.89058 6C8.37465 6 9.48699 7.16109 9.37496 8.71594Z" stroke="white" stroke-width="1.5" stroke-linecap="round" stroke-linejoin="round"/>
<path d="M9.65622 14.3434C8.81013 13.9557 7.87825 13.8066 6.8906 13.8066C4.4531 13.8066 2.10466 15.0184 1.51638 17.3785C1.43903 17.6907 1.63497 17.9996 1.9556 17.9996H7.21872" stroke="white" stroke-width="1.5" stroke-miterlimit="10" stroke-linecap="round"/>
</svg>
