<svg width="24" height="24" viewBox="0 0 24 24" fill="none" xmlns="http://www.w3.org/2000/svg">
<path d="M20.0477 16.4733C18.844 15 17.9941 14.25 17.9941 10.1883C17.9941 6.46875 16.0948 5.14359 14.5315 4.5C14.3238 4.41469 14.1284 4.21875 14.0651 4.00547C13.7909 3.07219 13.0221 2.25 12.0002 2.25C10.9784 2.25 10.2091 3.07266 9.93773 4.00641C9.87445 4.22203 9.67898 4.41469 9.47133 4.5C7.90617 5.14453 6.00867 6.465 6.00867 10.1883C6.00633 14.25 5.15648 15 3.95273 16.4733C3.45398 17.0836 3.89086 18 4.7632 18H19.242C20.1096 18 20.5437 17.0808 20.0477 16.4733Z" stroke="#170F46" stroke-opacity="0.65" stroke-width="1.5" stroke-linecap="round" stroke-linejoin="round"/>
<path d="M15 18V18.75C15 19.5456 14.6839 20.3087 14.1213 20.8713C13.5587 21.4339 12.7956 21.75 12 21.75C11.2044 21.75 10.4413 21.4339 9.87868 20.8713C9.31607 20.3087 9 19.5456 9 18.75V18" stroke="#170F46" stroke-opacity="0.65" stroke-width="1.5" stroke-linecap="round" stroke-linejoin="round"/>
</svg>
