<svg width="24" height="24" viewBox="0 0 24 24" fill="none" xmlns="http://www.w3.org/2000/svg">
<path fill-rule="evenodd" clip-rule="evenodd" d="M7.36448 6C6.79707 6 6.36299 6.307 6.21024 6.66341L6.21024 6.66342L4.4393 10.7954C4.27613 11.1762 3.83522 11.3525 3.4545 11.1894C3.07378 11.0262 2.89742 10.5853 3.06059 10.2046L4.83153 6.07253C4.83153 6.07253 4.83153 6.07252 4.83153 6.07252C5.25535 5.08362 6.29033 4.5 7.36448 4.5H16.6354C17.7096 4.5 18.7446 5.08363 19.1684 6.07253L20.9393 10.2046C21.1025 10.5853 20.9261 11.0262 20.5454 11.1894C20.1647 11.3525 19.7238 11.1762 19.5606 10.7954L17.7897 6.66342L17.7897 6.66341C17.6369 6.307 17.2028 6 16.6354 6H7.36448Z" fill="white"/>
<path fill-rule="evenodd" clip-rule="evenodd" d="M3 10.5C3 10.0858 3.33579 9.75 3.75 9.75H20.25C20.6642 9.75 21 10.0858 21 10.5V17.25C21 17.6642 20.6642 18 20.25 18H3.75C3.33579 18 3 17.6642 3 17.25V10.5ZM4.5 11.25V16.5H19.5V11.25H4.5Z" fill="white"/>
<path d="M5.25 17.25V18.75H3.75V17.25" stroke="white" stroke-width="1.5" stroke-linecap="round" stroke-linejoin="round"/>
<path d="M20.25 17.25V18.75H18.75V17.25" stroke="white" stroke-width="1.5" stroke-linecap="round" stroke-linejoin="round"/>
<path d="M6.75 14.25C7.16421 14.25 7.5 13.9142 7.5 13.5C7.5 13.0858 7.16421 12.75 6.75 12.75C6.33579 12.75 6 13.0858 6 13.5C6 13.9142 6.33579 14.25 6.75 14.25Z" stroke="white" stroke-width="1.5" stroke-linecap="round" stroke-linejoin="round"/>
<path d="M17.25 14.25C17.6642 14.25 18 13.9142 18 13.5C18 13.0858 17.6642 12.75 17.25 12.75C16.8358 12.75 16.5 13.0858 16.5 13.5C16.5 13.9142 16.8358 14.25 17.25 14.25Z" stroke="white" stroke-width="1.5" stroke-linecap="round" stroke-linejoin="round"/>
</svg>
