<svg width="24" height="24" viewBox="0 0 24 24" fill="none" xmlns="http://www.w3.org/2000/svg">
<path d="M21.0039 12.0037C21.0039 7.03491 16.9727 3.00366 12.0039 3.00366C7.03516 3.00366 3.00391 7.03491 3.00391 12.0037C3.00391 16.9724 7.03516 21.0037 12.0039 21.0037C16.9727 21.0037 21.0039 16.9738 21.0039 12.0037Z" stroke="#E6AF2E" stroke-width="1.5" stroke-miterlimit="10"/>
<path d="M14.1006 16.7948C13.1242 17.1426 12.5045 17.2443 11.5605 17.2443C8.69313 17.2443 6.57344 14.8973 6.8261 12.0018C7.07875 9.10633 9.60954 6.75977 12.4755 6.75977C15.7061 6.75977 17.4813 8.89492 17.2319 11.7543C17.0444 13.889 15.6944 14.504 14.987 14.3793C14.3214 14.2598 13.772 13.6518 13.8738 12.4879L14.1372 10.3945C13.7819 9.96461 12.8195 9.5507 11.7967 9.71289C10.8644 9.85773 9.79703 10.6874 9.68266 11.9999C9.56828 13.3124 10.3619 14.383 11.5544 14.383C12.7469 14.383 13.7978 13.521 13.9305 11.9999" stroke="#E6AF2E" stroke-width="1.3125" stroke-miterlimit="10" stroke-linecap="round"/>
</svg>
