<svg width="24" height="24" viewBox="0 0 24 24" fill="none" xmlns="http://www.w3.org/2000/svg">
<path d="M21.1409 17.5312C20.3965 16.7812 18.5937 15.6867 17.719 15.2456C16.58 14.6718 16.4862 14.6249 15.5909 15.2901C14.9937 15.734 14.5967 16.1306 13.8978 15.9815C13.1989 15.8324 11.6801 14.992 10.3503 13.6663C9.02042 12.3407 8.13121 10.7779 7.98167 10.0813C7.83214 9.38478 8.23527 8.99244 8.67496 8.39385C9.29464 7.5501 9.24777 7.40947 8.71808 6.27041C8.30511 5.38447 7.17871 3.59853 6.42589 2.85791C5.62058 2.06244 5.62058 2.20306 5.10167 2.41869C4.67922 2.59643 4.27394 2.81249 3.89089 3.06416C3.14089 3.56244 2.72464 3.97635 2.43355 4.59838C2.14246 5.22041 2.01167 6.67869 3.51496 9.40963C5.01824 12.1406 6.07292 13.537 8.25589 15.7138C10.4389 17.8907 12.1175 19.0612 14.5714 20.4374C17.607 22.1376 18.7714 21.8062 19.3953 21.5156C20.0192 21.2249 20.435 20.8124 20.9342 20.0624C21.1865 19.68 21.403 19.2752 21.5811 18.8531C21.7971 18.336 21.9378 18.336 21.1409 17.5312Z" stroke="#E6AF2E" stroke-width="1.5" stroke-miterlimit="10"/>
</svg>
