<svg width="24" height="24" viewBox="0 0 24 24" fill="none" xmlns="http://www.w3.org/2000/svg">
<path d="M22.1239 12.0619C22.1239 6.50335 17.6168 2 12.0619 2C6.50335 2 2 6.50335 2 12.0619C2 17.0829 5.67827 21.246 10.4898 22V14.9711H7.93466V12.0626H10.4898V9.84454C10.4898 7.3234 11.9896 5.93108 14.2888 5.93108C15.3899 5.93108 16.5427 6.12728 16.5427 6.12728V8.60315H15.2717C14.024 8.60315 13.6341 9.37981 13.6341 10.1753V12.0619H16.4244L15.976 14.9705H13.6341V21.9994C18.4418 21.2454 22.1239 17.0822 22.1239 12.0613V12.0619Z" fill="white"/>
</svg>
