<svg width="24" height="24" viewBox="0 0 24 24" fill="none" xmlns="http://www.w3.org/2000/svg">
<path d="M12 1.5C6.20156 1.5 1.5 6.20156 1.5 12C1.5 17.7984 6.20156 22.5 12 22.5C17.7984 22.5 22.5 17.7984 22.5 12C22.5 6.20156 17.7984 1.5 12 1.5ZM15.9141 16.35C14.9625 17.2266 13.6641 17.7422 12.1148 17.7422C9.87188 17.7422 7.93125 16.4555 6.98672 14.5805C6.59766 13.8047 6.375 12.9281 6.375 12C6.375 11.0719 6.59766 10.1953 6.98672 9.41953C7.93125 7.54219 9.87188 6.25547 12.1148 6.25547C13.6617 6.25547 14.9602 6.825 15.9562 7.75078L14.3109 9.39844C13.7156 8.82891 12.9586 8.54062 12.1172 8.54062C10.6219 8.54062 9.35625 9.55078 8.90391 10.9078C8.78906 11.2523 8.72344 11.6203 8.72344 12C8.72344 12.3797 8.78906 12.7477 8.90391 13.0922C9.35625 14.4492 10.6219 15.4594 12.1148 15.4594C12.8883 15.4594 13.5445 15.2555 14.0578 14.9109C14.6672 14.5031 15.0703 13.8961 15.2039 13.1766H12.1148V10.9547H17.5219C17.5898 11.332 17.625 11.7234 17.625 12.1289C17.625 13.8797 16.9992 15.3492 15.9141 16.35Z" fill="white"/>
</svg>
